<mxfile host="app.diagrams.net" agent="Mozilla/5.0 (X11; Linux x86_64) AppleWebKit/537.36 (KHTML, like Gecko) Chrome/139.0.0.0 Safari/537.36" version="28.1.0">
  <diagram name="Page-1" id="pB__ZYk25tRTgvriTM0n">
    <mxGraphModel dx="1113" dy="654" grid="1" gridSize="10" guides="1" tooltips="1" connect="1" arrows="1" fold="1" page="1" pageScale="1" pageWidth="850" pageHeight="1100" math="0" shadow="0">
      <root>
        <mxCell id="0" />
        <mxCell id="1" parent="0" />
        <mxCell id="Bhree_8IVqH9I8Z2f-9a-2" value="/register - check and register only if the mail id has iiitdwd.ac.in after &quot;@&quot;.&lt;div&gt;&lt;br&gt;&lt;div&gt;/login - login only if user is already registered&amp;nbsp;&lt;/div&gt;&lt;/div&gt;" style="rounded=1;whiteSpace=wrap;html=1;align=center;fontSize=23;" parent="1" vertex="1">
          <mxGeometry x="460" y="230" width="560" height="160" as="geometry" />
        </mxCell>
        <mxCell id="6K_ZOGJm7Vm8fiNNiEi8-2" value="&lt;div&gt;Default Field&lt;/div&gt;&lt;div&gt;&lt;br&gt;&lt;/div&gt;&lt;div&gt;_id&lt;/div&gt;&lt;div&gt;createdAt&lt;/div&gt;&lt;div&gt;updatedAt&lt;/div&gt;" style="rounded=0;whiteSpace=wrap;html=1;fontSize=23;" vertex="1" parent="1">
          <mxGeometry x="1340" width="190" height="190" as="geometry" />
        </mxCell>
        <mxCell id="6K_ZOGJm7Vm8fiNNiEi8-3" value="&lt;div&gt;Student Schema&lt;/div&gt;&lt;div&gt;&lt;br&gt;&lt;/div&gt;&lt;div&gt;mail - required&lt;/div&gt;&lt;div&gt;pass - not required (if we use something like better auth)&lt;/div&gt;&lt;div&gt;role - (automatically generated)*&lt;/div&gt;" style="rounded=0;whiteSpace=wrap;html=1;fontSize=23;" vertex="1" parent="1">
          <mxGeometry x="1610" width="680" height="190" as="geometry" />
        </mxCell>
        <mxCell id="6K_ZOGJm7Vm8fiNNiEi8-5" value="&lt;div&gt;Role -&amp;nbsp;&lt;br&gt;if mail starts in the form of&amp;nbsp;&lt;span style=&quot;background-color: transparent;&quot;&gt;&amp;lt;digit&amp;gt;&amp;lt;digit&amp;gt;b&amp;lt;c|d|e&amp;gt;&amp;lt;s|c|s&amp;gt;&amp;lt;digit&amp;gt;&amp;lt;digit&amp;gt;&amp;lt;digit&amp;gt;&lt;/span&gt;&lt;span style=&quot;background-color: transparent; color: light-dark(rgb(0, 0, 0), rgb(255, 255, 255));&quot;&gt;&amp;nbsp;&lt;/span&gt;&lt;/div&gt;&lt;div&gt;&lt;span style=&quot;background-color: transparent; color: light-dark(rgb(0, 0, 0), rgb(255, 255, 255));&quot;&gt;then role is student else it&#39;s faculty (other as well like clubs or administration people)&lt;/span&gt;&lt;/div&gt;&lt;div&gt;&lt;span style=&quot;background-color: transparent; color: light-dark(rgb(0, 0, 0), rgb(255, 255, 255));&quot;&gt;&lt;br&gt;&lt;/span&gt;&lt;/div&gt;&lt;div&gt;&lt;span style=&quot;background-color: transparent; color: light-dark(rgb(0, 0, 0), rgb(255, 255, 255));&quot;&gt;there will also be an admin role who can maintain the website&amp;nbsp;&lt;/span&gt;&lt;/div&gt;" style="rounded=0;whiteSpace=wrap;html=1;fontSize=23;" vertex="1" parent="1">
          <mxGeometry x="2320" width="910" height="190" as="geometry" />
        </mxCell>
        <mxCell id="6K_ZOGJm7Vm8fiNNiEi8-6" value="&lt;div&gt;Course&amp;nbsp;&lt;/div&gt;&lt;div&gt;&lt;br&gt;&lt;/div&gt;&lt;div&gt;courseCode&lt;/div&gt;&lt;div&gt;courseCredit&lt;/div&gt;&lt;div&gt;courseDetails&lt;/div&gt;" style="rounded=0;whiteSpace=wrap;html=1;fontSize=23;" vertex="1" parent="1">
          <mxGeometry x="1340" y="230" width="190" height="190" as="geometry" />
        </mxCell>
        <mxCell id="6K_ZOGJm7Vm8fiNNiEi8-7" value="&lt;div&gt;registeredCourse&amp;nbsp;&lt;/div&gt;&lt;div&gt;&lt;br&gt;&lt;/div&gt;&lt;div&gt;courseId&lt;/div&gt;&lt;div&gt;userId&lt;/div&gt;&lt;div&gt;courseInstructure&lt;/div&gt;" style="rounded=0;whiteSpace=wrap;html=1;fontSize=23;" vertex="1" parent="1">
          <mxGeometry x="1610" y="230" width="190" height="200" as="geometry" />
        </mxCell>
        <mxCell id="6K_ZOGJm7Vm8fiNNiEi8-9" value="&lt;div&gt;quiz&lt;/div&gt;&lt;div&gt;&lt;br&gt;&lt;/div&gt;&lt;div&gt;quizQns[qns]&lt;/div&gt;" style="rounded=0;whiteSpace=wrap;html=1;fontSize=23;" vertex="1" parent="1">
          <mxGeometry x="1900" y="230" width="190" height="200" as="geometry" />
        </mxCell>
        <mxCell id="6K_ZOGJm7Vm8fiNNiEi8-10" value="&lt;div&gt;qns&lt;/div&gt;&lt;div&gt;&lt;br&gt;&lt;/div&gt;&lt;div&gt;question&lt;/div&gt;&lt;div&gt;options[]&lt;/div&gt;&lt;div&gt;&lt;br&gt;&lt;/div&gt;&lt;div&gt;ans&lt;/div&gt;&lt;div&gt;boolCorrect&lt;/div&gt;" style="rounded=0;whiteSpace=wrap;html=1;fontSize=23;" vertex="1" parent="1">
          <mxGeometry x="2160" y="230" width="190" height="200" as="geometry" />
        </mxCell>
        <mxCell id="6K_ZOGJm7Vm8fiNNiEi8-12" value="&lt;div&gt;quizTaker&lt;/div&gt;&lt;div&gt;&lt;br&gt;&lt;/div&gt;&lt;div&gt;quizId&lt;/div&gt;&lt;div&gt;studentId&lt;/div&gt;&lt;div&gt;marks&lt;/div&gt;" style="rounded=0;whiteSpace=wrap;html=1;fontSize=23;" vertex="1" parent="1">
          <mxGeometry x="2420" y="230" width="190" height="200" as="geometry" />
        </mxCell>
      </root>
    </mxGraphModel>
  </diagram>
</mxfile>
